HIERARCHY
ROOT Junyuan_V1:Solving:Hips
{
	OFFSET 0.000000 0.000000 0.000000
	CHANNELS 6 Xposition Yposition Zposition Xrotation Yrotation Zrotation
	JOINT Junyuan_V1:Solving:Spine
	{
		OFFSET 0.000000 -11.384845 2.506330
		CHANNELS 6 Xposition Yposition Zposition Xrotation Yrotation Zrotation
		JOINT Junyuan_V1:Solving:Spine1
		{
			OFFSET 0.000000 -9.451137 1.666492
			CHANNELS 6 Xposition Yposition Zposition Xrotation Yrotation Zrotation
			JOINT Junyuan_V1:Solving:Spine2
			{
				OFFSET 0.000000 -9.560415 0.836431
				CHANNELS 6 Xposition Yposition Zposition Xrotation Yrotation Zrotation
				JOINT Junyuan_V1:Solving:Spine3
				{
					OFFSET 0.000000 -9.596935 0.000000
					CHANNELS 6 Xposition Yposition Zposition Xrotation Yrotation Zrotation
					JOINT Junyuan_V1:Solving:Neck
					{
						OFFSET 0.000000 -12.338917 -1.233889
						CHANNELS 6 Xposition Yposition Zposition Xrotation Yrotation Zrotation
						JOINT Junyuan_V1:Solving:Neck1
						{
							OFFSET 0.000000 -7.011459 -0.613421
							CHANNELS 6 Xposition Yposition Zposition Xrotation Yrotation Zrotation
							JOINT Junyuan_V1:Solving:Head
							{
								OFFSET 0.000000 -6.931316 -1.222178
								CHANNELS 6 Xposition Yposition Zposition Xrotation Yrotation Zrotation
								JOINT Junyuan_V1:Solving:HeadEnd
								{
									OFFSET 0.000000 -9.728081 0.000002
									CHANNELS 6 Xposition Yposition Zposition Xrotation Yrotation Zrotation
									End Site
									{
										OFFSET 0.000000 -9.728081 0.000002
									}
								}
							}
						}
					}
					JOINT Junyuan_V1:Solving:RightShoulder
					{
						OFFSET 0.000000 -8.813511 -5.370063
						CHANNELS 6 Xposition Yposition Zposition Xrotation Yrotation Zrotation
						JOINT Junyuan_V1:Solving:RightArm
						{
							OFFSET -18.258251 -0.000008 0.000000
							CHANNELS 6 Xposition Yposition Zposition Xrotation Yrotation Zrotation
							JOINT Junyuan_V1:Solving:RightForeArm
							{
								OFFSET -29.201408 -0.000008 0.000000
								CHANNELS 6 Xposition Yposition Zposition Xrotation Yrotation Zrotation
								JOINT Junyuan_V1:Solving:RightHand
								{
									OFFSET -21.396938 -0.000008 0.000000
									CHANNELS 6 Xposition Yposition Zposition Xrotation Yrotation Zrotation
									JOINT Junyuan_V1:Solving:RightHandThumb1
									{
										OFFSET -3.324738 2.789463 -2.472237
										CHANNELS 6 Xposition Yposition Zposition Xrotation Yrotation Zrotation
										End Site
										{
											OFFSET -4.877937 0.000000 -4.923042
										}
									}
									JOINT Junyuan_V1:Solving:RightHandMiddle1
									{
										OFFSET -8.865959 -0.000004 0.056833
										CHANNELS 6 Xposition Yposition Zposition Xrotation Yrotation Zrotation
										End Site
										{
											OFFSET -6.930412 -0.000004 0.000000
										}
									}
								}
							}
						}
					}
					JOINT Junyuan_V1:Solving:LeftShoulder
					{
						OFFSET 0.000000 -8.813511 -5.370063
						CHANNELS 6 Xposition Yposition Zposition Xrotation Yrotation Zrotation
						JOINT Junyuan_V1:Solving:LeftArm
						{
							OFFSET 18.258251 -0.000008 0.000000
							CHANNELS 6 Xposition Yposition Zposition Xrotation Yrotation Zrotation
							JOINT Junyuan_V1:Solving:LeftForeArm
							{
								OFFSET 29.201408 -0.000008 0.000000
								CHANNELS 6 Xposition Yposition Zposition Xrotation Yrotation Zrotation
								JOINT Junyuan_V1:Solving:LeftHand
								{
									OFFSET 21.396938 -0.000008 0.000000
									CHANNELS 6 Xposition Yposition Zposition Xrotation Yrotation Zrotation
									JOINT Junyuan_V1:Solving:LeftHandThumb1
									{
										OFFSET 3.324738 2.789463 -2.472237
										CHANNELS 6 Xposition Yposition Zposition Xrotation Yrotation Zrotation
										End Site
										{
											OFFSET 4.877937 0.000000 -4.923042
										}
									}
									JOINT Junyuan_V1:Solving:LeftHandMiddle1
									{
										OFFSET 8.865959 -0.000004 0.056833
										CHANNELS 6 Xposition Yposition Zposition Xrotation Yrotation Zrotation
										End Site
										{
											OFFSET 6.930412 -0.000004 0.000000
										}
									}
								}
							}
						}
					}
				}
			}
		}
	}
	JOINT Junyuan_V1:Solving:RightUpLeg
	{
		OFFSET -10.758358 0.000000 0.000000
		CHANNELS 6 Xposition Yposition Zposition Xrotation Yrotation Zrotation
		JOINT Junyuan_V1:Solving:RightLeg
		{
			OFFSET 0.000000 42.048927 -0.000006
			CHANNELS 6 Xposition Yposition Zposition Xrotation Yrotation Zrotation
			JOINT Junyuan_V1:Solving:RightFoot
			{
				OFFSET 0.000000 37.321884 -0.000006
				CHANNELS 6 Xposition Yposition Zposition Xrotation Yrotation Zrotation
				JOINT Junyuan_V1:Solving:RightForeFoot
				{
					OFFSET 0.000000 3.476204 -0.000000
					CHANNELS 6 Xposition Yposition Zposition Xrotation Yrotation Zrotation
					JOINT Junyuan_V1:Solving:RightToeBase
					{
						OFFSET 0.000000 0.000000 -13.613925
						CHANNELS 6 Xposition Yposition Zposition Xrotation Yrotation Zrotation
						JOINT Junyuan_V1:Solving:RightToeBaseEnd
						{
							OFFSET 0.000000 0.000000 -4.229021
							CHANNELS 6 Xposition Yposition Zposition Xrotation Yrotation Zrotation
							End Site
							{
								OFFSET 0.000000 -4.229019 0.000000
							}
						}
					}
				}
			}
		}
	}
	JOINT Junyuan_V1:Solving:LeftUpLeg
	{
		OFFSET 10.758358 0.000000 0.000000
		CHANNELS 6 Xposition Yposition Zposition Xrotation Yrotation Zrotation
		JOINT Junyuan_V1:Solving:LeftLeg
		{
			OFFSET 0.000000 42.048927 -0.000006
			CHANNELS 6 Xposition Yposition Zposition Xrotation Yrotation Zrotation
			JOINT Junyuan_V1:Solving:LeftFoot
			{
				OFFSET 0.000000 37.321884 -0.000006
				CHANNELS 6 Xposition Yposition Zposition Xrotation Yrotation Zrotation
				JOINT Junyuan_V1:Solving:LeftForeFoot
				{
					OFFSET 0.000000 3.476204 -0.000000
					CHANNELS 6 Xposition Yposition Zposition Xrotation Yrotation Zrotation
					JOINT Junyuan_V1:Solving:LeftToeBase
					{
						OFFSET 0.000000 0.000000 -13.613925
						CHANNELS 6 Xposition Yposition Zposition Xrotation Yrotation Zrotation
						JOINT Junyuan_V1:Solving:LeftToeBaseEnd
						{
							OFFSET 0.000000 0.000000 -4.216879
							CHANNELS 6 Xposition Yposition Zposition Xrotation Yrotation Zrotation
							End Site
							{
								OFFSET 0.000000 -4.216881 0.000000
							}
						}
					}
				}
			}
		}
	}
}
MOTION
Frames: 5
Frame Time: 0.041667
-22.313833 -16.498940 -81.252914 51.565551 177.083296 7.708540 0.000001 -11.384835 2.506326 13.810135 -0.295881 -0.520712 0.000001 -9.451129 1.666497 12.666275 -0.312205 -0.543709 0.000007 -9.560415 0.836434 20.597025 -1.570113 -1.178314 -0.000005 -9.596927 -0.000005 -4.672940 -0.598228 0.730830 0.000001 -12.338923 -1.233890 -48.268120 -2.828124 5.600312 -0.000003 -7.011465 -0.613433 21.565159 3.001654 -4.954675 -0.000000 -6.931309 -1.222173 3.247526 0.128973 0.026637 -0.000000 -9.728081 -0.000017 -0.000005 0.000001 0.000001 -0.000003 -8.813519 -5.370075 -0.000010 8.147265 12.618165 -18.258247 0.000002 0.000023 -79.267501 -24.804585 -84.904306 -29.201387 0.000005 -0.000005 -28.778500 -7.696488 -4.207171 -21.396921 -0.000008 -0.000012 0.751416 -15.236241 2.857076 -3.324746 2.789435 -2.472241 0.000003 0.000003 -0.000001 -8.865959 -0.000010 0.056839 0.000003 0.000000 0.000000 -0.000003 -8.813519 -5.370067 -0.000008 -0.208875 -13.450687 18.258255 -0.000007 0.000003 -83.715573 45.513976 82.615482 29.201401 -0.000000 0.000000 -58.531347 3.128211 5.095021 21.396915 0.000003 0.000009 0.677384 6.953971 -5.577407 3.324723 2.789453 -2.472254 0.000000 -0.000007 -0.000000 8.865951 0.000002 0.056822 -0.000001 0.000003 -0.000001 -10.758359 -0.000002 0.000001 -68.931560 13.460478 20.479513 -0.000004 42.048916 -0.000013 31.853383 0.000003 0.000004 0.000001 37.321888 -0.000009 20.228297 16.879848 -0.757796 0.000001 3.476197 0.000000 0.000000 -0.000009 0.000001 0.000006 -0.000005 -13.613927 6.979425 -0.000010 -0.000001 0.000002 0.000001 -4.229039 0.000005 0.000007 -0.000001 10.758362 0.000008 -0.000005 -74.505732 -13.860194 -15.275260 0.000002 42.048927 -0.000008 36.264418 -0.000000 0.000002 0.000006 37.321873 -0.000000 1.979048 -16.892663 3.906599 -0.000005 3.476204 -0.000001 -0.000000 0.000000 -0.000000 0.000005 -0.000004 -13.613922 15.432908 -0.000005 0.000001 0.000010 0.000009 -4.216886 0.000005 -0.000006 0.000002 
-22.550533 -16.629591 -81.539047 51.754099 177.313091 7.748934 -0.000002 -11.384861 2.506339 13.885038 -0.253421 -0.501434 -0.000002 -9.451125 1.666502 12.587554 -0.317914 -0.525600 0.000001 -9.560419 0.836439 20.352391 -1.610781 -1.109147 0.000001 -9.596939 -0.000003 -4.591816 -0.612575 0.752212 0.000002 -12.338919 -1.233871 -48.233775 -2.704089 5.421060 0.000005 -7.011439 -0.613418 21.757236 2.873489 -5.011859 0.000005 -6.931305 -1.222160 3.519658 0.127956 -0.016577 -0.000001 -9.728073 -0.000002 0.000001 -0.000000 -0.000001 0.000003 -8.813522 -5.370056 -0.000006 7.995896 12.592045 -18.258253 -0.000013 0.000004 -78.763679 -24.659792 -84.937671 -29.201391 -0.000007 -0.000010 -28.632764 -7.867790 -4.274096 -21.396944 -0.000002 -0.000005 0.769161 -15.153560 2.939986 -3.324739 2.789442 -2.472234 -0.000001 -0.000000 -0.000001 -8.865952 -0.000010 0.056831 -0.000003 -0.000000 -0.000000 0.000003 -8.813526 -5.370057 -0.000009 -0.220666 -13.539198 18.258244 -0.000005 0.000017 -83.160244 45.471855 82.655452 29.201382 0.000009 -0.000001 -58.665137 3.069605 5.026343 21.396938 -0.000007 0.000001 0.679514 7.063599 -5.508959 3.324720 2.789449 -2.472233 0.000002 -0.000014 0.000006 8.865943 -0.000014 0.056853 0.000001 0.000002 -0.000001 -10.758358 -0.000009 0.000008 -68.922804 14.505578 20.085481 0.000007 42.048927 -0.000012 32.090653 0.000000 0.000006 0.000001 37.321892 -0.000010 18.971499 16.660296 -2.594695 0.000002 3.476204 -0.000002 -0.000000 -0.000003 -0.000004 0.000003 -0.000023 -13.613934 7.851901 0.000002 -0.000004 0.000002 -0.000000 -4.229024 -0.000000 0.000004 0.000002 10.758356 -0.000006 0.000001 -73.807987 -13.912593 -15.260456 -0.000002 42.048931 -0.000019 35.545821 0.000003 -0.000000 0.000004 37.321903 -0.000007 2.139469 -17.004065 3.871215 0.000003 3.476212 0.000005 -0.000000 0.000002 -0.000001 0.000005 0.000011 -13.613926 15.409492 -0.000001 0.000002 0.000002 -0.000000 -4.216889 -0.000001 -0.000002 0.000003 
-22.786943 -16.755354 -81.803177 51.953281 177.476851 7.766176 -0.000005 -11.384858 2.506334 13.972444 -0.216259 -0.477318 -0.000002 -9.451156 1.666488 12.515073 -0.323933 -0.548236 -0.000000 -9.560425 0.836435 20.092924 -1.602030 -1.051587 -0.000001 -9.596919 -0.000005 -4.484987 -0.615933 0.778068 0.000003 -12.338929 -1.233872 -48.049162 -2.550468 5.219082 -0.000001 -7.011469 -0.613439 21.785133 2.706592 -4.990902 -0.000001 -6.931307 -1.222195 3.727665 0.125371 -0.057225 -0.000003 -9.728104 0.000014 -0.000003 -0.000001 0.000000 -0.000002 -8.813519 -5.370047 -0.000005 7.873847 12.443260 -18.258257 -0.000010 -0.000010 -78.406275 -24.811116 -84.965388 -29.201410 -0.000008 -0.000007 -28.571921 -7.883456 -4.271753 -21.396940 -0.000007 -0.000006 0.756493 -15.085504 2.904352 -3.324738 2.789448 -2.472250 -0.000001 0.000009 -0.000000 -8.865952 0.000007 0.056838 0.000001 0.000000 -0.000000 0.000002 -8.813526 -5.370049 -0.000005 -0.226319 -13.641132 18.258249 -0.000013 -0.000006 -82.589104 45.332990 82.638090 29.201408 0.000004 -0.000013 -58.570026 3.097489 5.052911 21.396931 -0.000004 0.000010 0.676181 6.928634 -5.587693 3.324739 2.789443 -2.472239 -0.000008 -0.000005 0.000001 8.865967 0.000004 0.056841 0.000001 0.000001 0.000000 -10.758360 -0.000011 0.000007 -68.990327 15.789562 19.769349 -0.000004 42.048931 -0.000008 32.327989 -0.000005 0.000002 0.000002 37.321903 -0.000019 17.383356 15.751446 -4.691352 -0.000004 3.476204 0.000004 0.000000 -0.000001 -0.000002 -0.000004 -0.000001 -13.613925 7.909756 -0.000004 -0.000002 -0.000001 -0.000007 -4.229026 0.000003 0.000002 -0.000000 10.758352 -0.000007 0.000007 -73.049379 -13.909159 -15.152474 0.000002 42.048920 0.000004 34.801142 0.000006 0.000002 -0.000002 37.321899 0.000000 2.267265 -17.170254 3.892514 -0.000009 3.476197 -0.000003 -0.000000 0.000003 0.000000 -0.000000 0.000003 -13.613926 15.444267 0.000000 0.000001 0.000004 0.000001 -4.216877 0.000002 -0.000001 0.000002 
-23.013542 -16.858732 -82.073120 52.062690 177.679079 7.764047 -0.000000 -11.384834 2.506325 14.015209 -0.195382 -0.454576 -0.000000 -9.451124 1.666486 12.387881 -0.323735 -0.547535 -0.000005 -9.560436 0.836421 19.895518 -1.607540 -1.010369 -0.000001 -9.596932 0.000002 -4.411219 -0.625089 0.811784 0.000004 -12.338908 -1.233880 -47.970556 -2.437855 5.042825 0.000005 -7.011453 -0.613417 21.910272 2.552073 -4.946639 0.000003 -6.931324 -1.222183 3.972580 0.123810 -0.096405 0.000003 -9.728073 -0.000002 0.000003 0.000000 -0.000000 0.000004 -8.813503 -5.370061 -0.000008 7.735379 12.310969 -18.258245 -0.000003 0.000000 -78.125049 -24.887568 -84.980968 -29.201397 -0.000001 -0.000005 -28.418281 -7.818039 -4.209744 -21.396936 -0.000003 0.000004 0.693820 -15.086694 2.663866 -3.324722 2.789452 -2.472223 0.000001 0.000012 0.000001 -8.865950 -0.000003 0.056838 0.000003 0.000003 0.000002 0.000007 -8.813511 -5.370062 -0.000006 -0.196591 -13.679285 18.258244 -0.000006 0.000005 -82.012035 45.311827 82.543369 29.201385 0.000003 0.000002 -58.567130 3.096370 5.050522 21.396940 0.000000 0.000013 0.677860 6.880541 -5.640171 3.324734 2.789440 -2.472233 0.000001 -0.000012 0.000005 8.865959 -0.000017 0.056838 0.000001 -0.000001 0.000000 -10.758357 0.000018 -0.000010 -69.247914 17.070431 19.371455 -0.000002 42.048927 -0.000021 32.589643 -0.000001 0.000002 0.000002 37.321896 -0.000020 16.029020 14.322018 -5.604005 0.000002 3.476212 -0.000004 0.000001 -0.000002 0.000001 -0.000001 0.000007 -13.613933 7.261967 -0.000001 0.000001 -0.000002 -0.000006 -4.229025 0.000004 0.000002 -0.000000 10.758359 0.000011 -0.000002 -72.353949 -13.830993 -15.016569 0.000005 42.048935 0.000006 33.996573 -0.000001 0.000002 -0.000004 37.321884 0.000001 2.515308 -17.450194 3.868079 -0.000002 3.476212 -0.000001 -0.000000 -0.000003 -0.000000 0.000010 -0.000001 -13.613938 15.375999 -0.000010 0.000003 0.000001 0.000009 -4.216884 0.000002 -0.000005 0.000003 
-23.217205 -16.939123 -82.344376 52.121600 177.994853 7.797261 -0.000000 -11.384836 2.506320 14.039896 -0.284548 -0.475860 0.000003 -9.451148 1.666501 12.225163 -0.314907 -0.524416 -0.000002 -9.560419 0.836441 19.740268 -1.629609 -0.980428 -0.000000 -9.596933 0.000016 -4.372752 -0.637515 0.862487 -0.000002 -12.338919 -1.233875 -47.903979 -2.329150 4.838995 0.000001 -7.011477 -0.613423 22.043134 2.387492 -4.826355 -0.000002 -6.931323 -1.222165 4.189408 0.120607 -0.124381 -0.000001 -9.728081 0.000012 0.000001 0.000000 0.000000 -0.000000 -8.813519 -5.370049 -0.000009 7.635614 12.192493 -18.258249 0.000003 0.000019 -77.844486 -25.064320 -85.008336 -29.201399 -0.000000 -0.000007 -28.567968 -7.784439 -4.217932 -21.396961 -0.000006 -0.000002 0.696411 -15.292365 2.638739 -3.324753 2.789452 -2.472245 -0.000000 0.000007 0.000000 -8.865960 0.000012 0.056834 0.000003 0.000004 -0.000001 0.000004 -8.813519 -5.370049 -0.000009 -0.171175 -13.663269 18.258259 -0.000025 -0.000014 -81.528963 45.408078 82.465266 29.201391 0.000003 -0.000005 -58.616267 3.024564 4.943578 21.396938 -0.000008 0.000017 0.681678 6.930220 -5.631556 3.324728 2.789450 -2.472233 -0.000004 -0.000009 0.000006 8.865951 0.000009 0.056808 -0.000000 -0.000003 -0.000001 -10.758358 -0.000008 -0.000006 -69.591390 18.321820 18.781238 -0.000001 42.048935 -0.000008 32.981454 -0.000004 0.000000 -0.000000 37.321903 -0.000010 14.766992 12.658530 -5.061492 -0.000001 3.476205 0.000005 -0.000001 0.000002 -0.000000 -0.000000 0.000004 -13.613924 6.865674 0.000005 -0.000004 -0.000002 0.000010 -4.229036 0.000005 -0.000000 -0.000003 10.758358 0.000005 -0.000010 -71.829199 -13.787315 -15.033374 -0.000008 42.048943 -0.000010 33.297736 0.000000 -0.000001 -0.000006 37.321884 -0.000006 2.767215 -17.703031 3.820042 0.000005 3.476204 -0.000006 -0.000000 -0.000003 0.000001 0.000004 0.000009 -13.613945 15.282618 -0.000007 0.000004 0.000006 -0.000015 -4.216877 0.000000 -0.000006 0.000004 
